<?xml version="1.0" standalone="no"?>
<!DOCTYPE svg PUBLIC "-//W3C//DTD SVG 20010904//EN"
 "http://www.w3.org/TR/2001/REC-SVG-20010904/DTD/svg10.dtd">
<svg version="1.0" xmlns="http://www.w3.org/2000/svg"
 width="646.000000pt" height="650.000000pt" viewBox="0 0 646.000000 650.000000"
 preserveAspectRatio="xMidYMid meet">

<g transform="translate(0.000000,650.000000) scale(0.100000,-0.100000)"
fill="#000000" stroke="none">
<path d="M2970 6351 c-41 -4 -91 -15 -110 -24 -22 -10 -59 -16 -100 -15 -39 0
-80 -6 -102 -16 -20 -8 -64 -18 -97 -20 -34 -2 -67 -9 -75 -15 -7 -6 -44 -17
-82 -25 -77 -15 -241 -72 -337 -115 -34 -16 -73 -32 -87 -36 -36 -11 -238
-113 -285 -144 -22 -15 -53 -32 -68 -39 -75 -32 -303 -199 -429 -313 -42 -39
-93 -83 -112 -98 -38 -30 -125 -123 -177 -188 -19 -23 -62 -75 -96 -115 -77
-91 -171 -220 -230 -318 -26 -41 -62 -99 -81 -128 -18 -29 -52 -92 -73 -140
-22 -48 -46 -99 -54 -114 -8 -14 -15 -33 -15 -42 0 -8 -13 -41 -29 -73 -80
-159 -176 -577 -210 -912 -35 -336 16 -780 133 -1168 87 -288 289 -674 495
-943 491 -644 1150 -1058 1891 -1189 69 -12 163 -29 210 -37 136 -24 368 -35
541 -24 85 5 166 13 180 18 13 5 56 12 94 16 39 4 97 13 130 21 33 7 107 23
165 36 146 31 290 79 406 135 38 19 78 34 87 34 20 0 255 117 275 137 8 8 50
32 93 54 81 40 193 113 239 153 14 12 39 31 55 41 17 10 66 53 110 95 44 43
94 84 110 93 40 20 175 160 175 181 0 9 38 54 84 100 46 45 93 101 105 125 12
23 28 44 36 47 7 3 24 22 37 42 74 114 96 151 113 192 11 25 31 61 46 80 23
31 46 76 119 235 10 22 22 58 26 80 4 22 10 42 14 45 14 10 60 110 60 130 0
12 9 38 19 58 25 49 40 94 57 171 8 36 19 70 25 77 5 7 9 34 7 61 l-3 48 -11
-40 c-6 -22 -16 -58 -21 -80 -19 -72 -66 -219 -83 -260 -10 -22 -35 -80 -56
-130 -60 -140 -226 -468 -301 -594 -70 -118 -133 -191 -163 -191 -21 0 -32 23
-23 47 8 22 75 131 123 203 205 305 403 776 460 1094 51 283 67 697 36 916
-33 228 -82 434 -152 644 -90 273 -182 454 -389 771 -158 242 -493 572 -755
743 -80 52 -170 111 -200 132 -89 60 -223 125 -401 195 -91 36 -171 65 -178
65 -6 0 -11 5 -11 10 0 24 187 -25 291 -76 115 -56 290 -134 300 -134 13 0
153 -81 248 -142 41 -27 76 -46 79 -43 7 7 -35 40 -95 76 -29 16 -55 34 -58
38 -2 5 -31 21 -62 37 -32 15 -74 41 -94 56 -55 42 -268 140 -316 146 -24 2
-43 8 -43 12 0 21 -245 115 -350 135 -36 6 -75 17 -87 23 -12 7 -46 12 -76 12
-33 0 -72 8 -98 20 -31 14 -66 20 -118 20 -63 0 -78 3 -99 22 -23 22 -30 23
-265 24 -133 1 -276 -1 -317 -5z m298 -91 c133 0 242 -4 242 -8 0 -5 -84 -9
-187 -9 -104 0 -245 -3 -315 -7 -70 -5 -142 -4 -160 0 -30 7 -26 9 42 19 41 6
89 10 105 9 17 -2 139 -3 273 -4z m289 -16 c-3 -3 -12 -4 -19 -1 -8 3 -5 6 6
6 11 1 17 -2 13 -5z m-1308 -148 c-2 -2 -49 -21 -104 -41 -137 -50 -277 -126
-489 -264 -196 -127 -298 -208 -453 -355 -313 -298 -642 -781 -756 -1112 -43
-124 -149 -513 -176 -651 -42 -205 -51 -487 -26 -768 8 -88 15 -187 15 -220 0
-36 13 -104 31 -169 30 -111 37 -183 10 -121 -20 46 -80 270 -96 360 -26 146
-35 277 -37 515 -1 144 3 274 11 335 47 369 195 811 368 1098 20 32 59 101 87
153 142 258 538 682 835 893 96 69 394 220 544 276 65 25 125 45 132 45 7 0
26 7 41 15 26 13 74 22 63 11z m1371 -131 c0 -16 -6 -25 -15 -25 -15 0 -21 31
-8 43 13 14 23 6 23 -18z m-1445 -98 c-10 -25 -20 -35 -30 -31 -23 9 -18 30
12 52 16 11 29 19 31 18 1 -2 -5 -19 -13 -39z m2145 27 c0 -9 -5 -14 -12 -12
-18 6 -21 28 -4 28 9 0 16 -7 16 -16z m-1890 -68 c-39 -38 -97 -64 -70 -31 22
26 92 76 99 70 3 -3 -11 -21 -29 -39z m1887 38 l23 -6 -24 -19 c-29 -23 -40
-24 -55 -5 -10 11 -8 17 6 25 21 12 22 12 50 5z m-662 -74 c216 -45 483 -124
509 -150 14 -14 -4 -13 -41 1 -75 30 -318 95 -448 120 -75 15 -161 22 -340 26
-213 5 -256 3 -380 -16 -411 -63 -566 -111 -878 -274 -283 -147 -356 -199
-575 -405 -188 -179 -315 -338 -472 -597 -79 -130 -95 -166 -170 -366 -65
-176 -88 -262 -124 -469 -63 -363 -53 -656 34 -1031 70 -298 101 -378 243
-633 155 -276 446 -617 657 -769 47 -33 105 -77 130 -97 117 -94 257 -174 404
-232 28 -10 60 -25 71 -32 27 -16 86 -37 225 -80 211 -64 356 -96 488 -107
150 -12 520 -5 612 11 78 13 368 90 488 129 199 64 405 174 594 316 44 33 107
80 141 104 119 85 446 432 492 521 10 19 48 80 85 135 83 123 117 183 170 305
93 211 129 338 177 615 25 145 27 184 28 410 0 253 -6 312 -51 533 -57 282
-166 551 -336 830 -112 184 -231 336 -370 473 -71 69 -128 129 -128 133 0 18
99 -65 207 -172 78 -77 142 -151 186 -217 37 -55 100 -146 141 -203 54 -75 94
-148 150 -271 42 -92 76 -171 76 -173 0 -3 7 -23 17 -44 9 -22 17 -46 19 -54
1 -8 16 -62 33 -120 76 -261 104 -451 103 -710 -1 -344 -49 -625 -154 -888
-88 -224 -200 -427 -327 -594 -20 -26 -49 -68 -66 -95 -67 -108 -318 -368
-431 -446 -38 -27 -127 -85 -199 -129 -71 -44 -153 -96 -181 -114 -140 -90
-303 -157 -553 -230 -290 -83 -469 -102 -811 -84 -344 17 -538 66 -920 230
-75 32 -160 72 -189 90 -30 17 -84 46 -120 65 -70 35 -258 173 -355 261 -100
91 -332 364 -423 499 -132 196 -224 376 -309 603 -46 120 -58 167 -84 310 -59
323 -72 571 -41 817 29 228 64 396 101 486 18 41 43 108 57 149 30 86 158 339
212 420 110 164 142 208 171 235 18 17 49 55 70 85 54 79 281 296 375 359 44
30 134 90 200 135 66 45 167 105 225 133 326 161 452 199 851 258 252 37 569
39 734 5z m-1419 -6 c4 -17 2 -29 -6 -34 -29 -18 -61 20 -39 46 18 22 38 16
45 -12z m2029 -25 c-8 -12 -35 -12 -35 0 0 11 22 20 33 14 4 -2 5 -9 2 -14z
m-2175 -23 c0 -11 -19 -15 -25 -6 -3 5 1 10 9 10 9 0 16 -2 16 -4z m-135 -75
c36 -7 37 -8 15 -14 -14 -3 -72 -8 -130 -11 -58 -4 -118 -9 -135 -12 -43 -9
-23 8 33 28 50 18 151 22 217 9z m2553 -8 c-10 -2 -28 -2 -40 0 -13 2 -5 4 17
4 22 1 32 -1 23 -4z m135 -10 c-13 -2 -33 -2 -45 0 -13 2 -3 4 22 4 25 0 35
-2 23 -4z m-413 -33 c8 -5 11 -10 5 -10 -5 0 -17 5 -25 10 -8 5 -10 10 -5 10
6 0 17 -5 25 -10z m133 -60 c29 -16 49 -30 46 -30 -11 0 -119 50 -119 55 0 11
23 3 73 -25z m93 -45 c10 -8 14 -15 8 -15 -5 0 -19 7 -30 15 -10 8 -14 15 -8
15 5 0 19 -7 30 -15z m756 -352 c32 -17 32 -18 8 -21 -28 -5 -60 28 -59 62 l0
21 9 -22 c5 -12 24 -30 42 -40z m99 25 c25 -30 24 -40 -3 -36 -17 2 -24 11
-26 31 -4 33 4 34 29 5z m-106 -108 c3 -5 -3 -10 -14 -10 -12 0 -21 5 -21 10
0 6 6 10 14 10 8 0 18 -4 21 -10z m-1675 -31 c161 -20 392 -88 465 -136 22
-15 69 -42 105 -61 169 -91 271 -171 473 -377 l147 -150 88 -175 c48 -96 94
-195 101 -220 8 -25 25 -79 38 -120 51 -158 91 -338 103 -466 12 -133 11 -165
-16 -308 -8 -45 -20 -123 -25 -174 -8 -83 -39 -200 -59 -227 -4 -5 -13 -28
-20 -50 -7 -22 -30 -76 -50 -120 -20 -44 -45 -102 -55 -129 -10 -26 -37 -71
-61 -100 -24 -28 -59 -74 -79 -103 -19 -28 -99 -111 -177 -185 -213 -200 -231
-219 -304 -325 -135 -196 -231 -298 -337 -360 -44 -25 -100 -67 -126 -92 -100
-99 -205 -195 -181 -166 100 122 293 295 328 295 4 0 33 22 63 49 50 44 197
246 187 256 -2 2 -17 -3 -33 -11 -16 -8 -49 -17 -73 -20 -61 -6 -90 -30 -174
-146 -68 -95 -210 -248 -229 -248 -24 0 10 46 53 73 25 15 158 183 158 199 0
13 -54 9 -111 -8 -30 -9 -74 -18 -99 -20 -25 -1 -92 -7 -150 -13 -58 -5 -179
-10 -268 -11 l-164 0 44 -48 c38 -43 88 -146 76 -157 -3 -3 -21 19 -41 47 -64
93 -140 168 -169 168 -15 0 -39 5 -55 11 -36 14 -296 89 -299 86 -1 -1 40 -65
92 -142 86 -129 108 -175 85 -175 -5 0 -16 16 -26 36 -9 20 -38 63 -64 95 -52
64 -101 156 -101 189 0 27 -39 50 -170 101 -58 23 -119 54 -137 70 -18 15 -65
47 -105 70 -57 33 -117 87 -269 239 -247 248 -257 262 -353 502 -57 142 -90
249 -122 393 -20 90 -25 150 -31 336 -7 248 -3 284 49 454 77 257 210 539 307
655 207 245 494 470 760 594 155 72 237 95 426 120 192 26 402 27 585 5z
m-2443 -43 c13 -12 -12 -26 -45 -25 -88 3 -118 22 -72 46 18 9 33 8 67 -2 25
-8 47 -16 50 -19z m4397 8 c28 -11 17 -24 -18 -24 -36 0 -56 14 -34 23 19 8
34 8 52 1z m-78 -43 c43 -21 90 -51 104 -66 22 -25 16 -23 -65 20 -49 27 -103
57 -120 67 -54 32 -1 19 81 -21z m243 -168 c56 -68 110 -184 120 -259 15 -109
15 -244 1 -294 -13 -43 -14 -38 -26 145 -14 219 -33 298 -90 366 -19 23 -39
50 -45 60 -17 33 8 21 40 -18z m-4808 -21 c-5 -9 -19 -26 -31 -37 l-21 -19 11
28 c15 41 19 46 36 46 11 0 12 -4 5 -18z m4707 -57 c-26 -39 -38 -44 -38 -16
0 18 34 51 52 51 5 0 -2 -16 -14 -35z m-4797 -101 c-13 -34 -28 -111 -36 -192
-8 -74 -16 -137 -19 -139 -2 -3 -10 5 -16 17 -24 45 21 287 67 356 25 39 27
20 4 -42z m5149 -330 c0 -14 -3 -14 -15 -4 -8 7 -15 14 -15 16 0 2 7 4 15 4 8
0 15 -7 15 -16z m20 -107 c0 -20 -23 -48 -51 -62 -31 -17 -54 -12 -45 10 2 7
0 17 -6 23 -12 12 -4 42 12 42 5 0 10 -11 10 -25 0 -30 7 -31 38 -5 17 14 22
26 17 42 -6 22 -6 22 9 4 9 -11 16 -24 16 -29z m-163 -9 c-3 -8 -6 -5 -6 6 -1
11 2 17 5 13 3 -3 4 -12 1 -19z m-5159 -11 c2 -10 -3 -17 -12 -17 -18 0 -29
16 -21 31 9 14 29 6 33 -14z m5172 -75 c0 -13 5 -32 11 -43 5 -11 9 -30 7 -42
-3 -22 -4 -22 -14 -2 -15 26 -28 146 -14 125 5 -8 10 -25 10 -38z m-5175 -272
c-24 -47 -75 -125 -75 -115 0 11 60 137 73 154 18 22 20 -5 2 -39z m5294 26
c12 -13 33 -54 45 -90 l24 -67 -23 21 c-24 23 -85 129 -85 149 0 18 15 13 39
-13z m81 -404 c0 -12 -49 -37 -56 -29 -4 3 -4 13 -1 22 7 15 57 22 57 7z
m-5420 -52 c0 -11 -40 -34 -47 -26 -3 3 -3 12 0 21 7 16 47 21 47 5z m5585
-30 c3 -5 -9 -18 -27 -29 -18 -11 -38 -25 -45 -30 -19 -17 -48 -13 -68 9 -18
20 -17 20 17 20 22 0 41 7 53 20 19 21 60 27 70 10z m3 -174 c17 -43 19 -35
-42 -212 -38 -112 -46 -127 -126 -230 -31 -39 -67 -92 -80 -116 -13 -25 -32
-51 -42 -57 -18 -11 -18 -10 -7 11 7 13 47 75 89 138 90 134 112 175 134 249
22 73 21 108 -3 121 -29 15 -67 12 -81 -6 -19 -22 -65 -14 -65 11 0 19 30 34
95 49 14 4 37 24 53 47 34 49 54 48 75 -5z m-5729 -23 c22 -26 41 -52 41 -57
0 -12 -60 -56 -77 -56 -17 0 -33 48 -33 99 0 76 11 79 69 14z m138 -88 c3 -9
3 -19 -1 -22 -8 -9 -37 18 -30 28 8 14 24 11 31 -6z m5433 -46 c0 -5 -7 -9
-15 -9 -15 0 -20 12 -9 23 8 8 24 -1 24 -14z m-5410 -350 c6 -10 7 -19 2 -19
-5 0 -14 12 -20 26 -14 29 2 24 18 -7z m5410 -200 c0 -20 -21 -49 -35 -49 -26
0 -29 23 -5 42 25 20 40 23 40 7z m-5307 -128 c21 -36 21 -41 2 -41 -8 0 -15
1 -15 3 0 1 -4 17 -9 35 -12 40 -1 42 22 3z m5161 -15 c-2 -69 -44 -76 -44 -7
0 42 7 53 30 49 10 -3 15 -15 14 -42z m72 -51 c7 -18 -14 -47 -27 -39 -5 3 -9
16 -9 30 0 27 27 34 36 9z m-142 -175 c3 -25 8 -62 12 -83 10 -59 -52 -287
-78 -287 -16 0 -1 56 24 91 22 29 23 40 23 184 0 150 7 187 19 95z m100 -1
c-9 -10 -23 -19 -30 -19 -18 0 -5 38 20 56 19 13 21 13 24 -1 2 -9 -4 -25 -14
-36z m-5081 -309 c17 -25 24 -80 9 -80 -21 0 -82 171 -81 225 0 23 7 12 27
-45 15 -41 35 -86 45 -100z m4887 -10 c-12 -29 -66 -87 -74 -79 -3 3 14 38 37
79 34 61 42 71 45 52 2 -13 -2 -36 -8 -52z m-3606 -69 c6 -14 28 -56 49 -93
21 -36 50 -102 66 -145 46 -130 49 -135 150 -181 49 -23 94 -42 100 -42 5 0
12 -4 15 -9 7 -11 -67 8 -137 35 -73 28 -95 51 -126 136 -41 109 -91 174 -91
117 0 -34 -85 -153 -150 -209 -33 -29 -60 -49 -60 -45 0 4 30 40 68 79 59 63
133 182 132 211 0 6 -12 33 -25 60 -25 51 -35 132 -14 119 6 -3 16 -18 23 -33z
m2393 -32 c-8 -19 -35 -59 -59 -89 -25 -30 -63 -94 -83 -143 -23 -53 -49 -97
-67 -112 -63 -53 -298 -166 -341 -165 -15 1 113 69 131 70 23 0 151 79 185
114 18 18 50 74 74 128 46 106 149 256 165 240 6 -6 4 -22 -5 -43z m-2147 -84
c16 -49 106 -159 186 -228 78 -68 70 -75 -14 -12 -91 69 -202 207 -202 252 0
35 17 28 30 -12z m3304 -6 c-15 -25 -143 -97 -192 -109 -47 -11 -56 -18 -85
-61 -25 -39 -37 -49 -59 -49 -21 0 -28 5 -28 20 0 11 6 20 14 20 7 0 20 7 27
16 7 9 22 20 34 25 11 5 79 40 150 78 137 72 150 78 139 60z m-1166 -81 c16
-35 52 -101 81 -148 53 -86 69 -125 57 -138 -9 -9 -40 31 -65 83 -10 22 -44
72 -75 112 -31 39 -56 78 -56 87 0 15 20 66 27 66 1 0 16 -28 31 -62z m-3249
-70 c28 -4 29 -22 1 -26 -24 -4 -46 11 -62 42 -11 20 -10 20 14 4 13 -9 34
-18 47 -20z m931 -19 c0 -29 -58 -97 -120 -140 -61 -43 -72 -62 -45 -73 8 -3
15 -9 15 -14 0 -14 -42 -3 -68 17 l-23 17 50 32 c60 39 137 123 157 171 12 28
17 33 24 21 5 -8 10 -22 10 -31z m2273 -30 c20 -17 42 -40 48 -51 11 -20 9
-21 -32 -14 -28 4 -45 3 -50 -5 -12 -19 -26 -2 -33 41 -11 69 8 77 67 29z
m754 -41 c-2 -13 -4 -5 -4 17 -1 22 1 32 4 23 2 -10 2 -28 0 -40z m247 46 c19
-7 21 -45 4 -62 -17 -17 -31 -15 -24 4 3 8 2 24 -4 33 -13 25 -3 35 24 25z
m-1914 -20 c0 -8 -161 -188 -172 -192 -4 -2 -8 -10 -8 -18 0 -8 -4 -14 -10
-14 -20 0 -16 9 63 124 42 60 90 106 113 106 8 0 14 -3 14 -6z m171 -41 c-5
-10 -45 -56 -88 -103 -88 -96 -138 -157 -170 -209 -14 -22 -22 -29 -23 -19 0
31 103 172 191 261 85 85 109 104 90 70z m-384 -15 c33 -31 31 -75 -4 -89 -20
-7 -30 -6 -40 4 -16 16 -35 86 -27 99 10 15 48 8 71 -14z m-350 -70 c82 -81
143 -159 163 -212 5 -14 8 -26 6 -26 -3 0 -28 30 -57 68 -29 37 -94 109 -143
160 -115 118 -89 127 31 10z m2223 -65 c-7 -40 -24 -79 -55 -125 -46 -69 -80
-95 -46 -35 20 35 35 75 78 212 27 88 28 89 31 48 2 -23 -2 -68 -8 -100z m430
128 c0 -6 -4 -13 -10 -16 -5 -3 -10 1 -10 9 0 9 5 16 10 16 6 0 10 -4 10 -9z
m-360 -50 c0 -11 5 -23 10 -26 20 -12 10 -45 -16 -55 -40 -16 -47 -13 -40 18
4 15 10 39 13 55 6 31 33 37 33 8z m-746 -46 c4 -12 2 -13 -12 -5 -27 16 -52
37 -52 44 0 12 57 -23 64 -39z m-3212 18 c19 -17 25 -53 9 -53 -11 0 -51 48
-51 61 0 14 22 10 42 -8z m4262 -5 c-7 -24 -192 -238 -205 -238 -4 0 -11 -9
-14 -20 -11 -35 -56 -80 -157 -157 -210 -159 -430 -294 -477 -293 -24 1 35 50
59 50 25 0 48 39 30 50 -8 5 7 20 46 45 33 21 101 70 152 109 52 39 115 87
142 106 71 52 310 260 310 270 0 9 107 100 117 100 2 0 1 -10 -3 -22z m-2646
-73 c-3 -3 -9 2 -12 12 -6 14 -5 15 5 6 7 -7 10 -15 7 -18z m1998 -49 c9 -39
1 -91 -16 -91 -11 0 -14 13 -15 50 0 28 1 53 3 58 7 15 22 6 28 -17z m-3338
-141 c42 -17 56 -35 27 -35 -22 0 -69 25 -86 46 -16 20 -20 21 59 -11z m112
-24 c0 -20 -17 -37 -27 -28 -7 8 7 47 18 47 5 0 9 -9 9 -19z m1361 -63 c28
-54 18 -47 -26 20 -26 39 -31 51 -15 37 12 -11 31 -37 41 -57z m-1206 -48 c44
-5 140 -14 213 -20 164 -12 212 -24 281 -68 54 -34 279 -252 260 -252 -5 0
-62 51 -127 113 -64 62 -131 123 -148 135 -47 32 -141 49 -314 57 -163 7 -288
31 -322 62 -33 30 -19 34 30 8 30 -15 78 -29 127 -35z m2985 20 c-8 -5 -19
-10 -25 -10 -5 0 -3 5 5 10 8 5 20 10 25 10 6 0 3 -5 -5 -10z m-3180 -138 c13
-13 11 -14 -15 -7 -31 7 -146 88 -180 126 -20 22 167 -92 195 -119z m3038 97
c-17 -9 -318 -32 -326 -24 -7 7 39 15 138 24 140 12 209 13 188 0z m-422 -68
c-3 -5 -57 -48 -118 -95 -62 -48 -142 -109 -178 -137 -67 -53 -178 -114 -187
-105 -10 10 17 34 46 39 28 6 67 34 233 167 127 103 225 166 204 131z m-2202
-50 c31 -28 66 -36 66 -16 0 11 7 15 22 13 29 -4 32 -20 11 -47 -17 -21 -21
-21 -48 -10 -47 21 -85 49 -85 65 0 19 10 18 34 -5z m2356 -61 c0 -51 -8 -61
-30 -35 -16 20 -4 85 15 85 11 0 15 -13 15 -50z m-2122 -21 c3 -17 -46 -72
-58 -64 -11 7 6 66 22 77 17 10 32 5 36 -13z m1960 9 c-5 -15 -48 -24 -48 -10
0 14 12 22 33 22 10 0 17 -5 15 -12z m-497 -36 c-17 -31 -51 -56 -61 -46 -7 7
-2 19 14 37 29 31 62 38 47 9z m549 8 c0 -8 -31 -30 -43 -30 -3 0 -3 9 0 20 5
20 43 29 43 10z m-1393 -95 c13 -27 14 -38 5 -47 -16 -16 -28 -2 -36 45 -9 48
9 49 31 2z m723 -26 c-7 -11 -14 -18 -17 -15 -3 3 0 12 7 21 18 21 23 19 10
-6z m-968 -8 c75 -29 108 -45 108 -53 0 -16 -33 -8 -86 23 -64 36 -74 50 -22
30z m822 -81 c46 -21 57 -30 34 -30 -13 0 -98 49 -87 50 4 0 27 -9 53 -20z
m303 -147 c9 -4 5 -11 -11 -24 -92 -72 -606 -93 -914 -38 -67 12 -75 17 -62
39 7 12 71 14 368 14 198 1 364 5 368 9 9 8 229 8 251 0z"/>
<path d="M2680 4175 c-5 -14 -10 -36 -10 -48 0 -45 -62 -325 -91 -411 -16 -49
-28 -91 -25 -93 8 -8 49 19 75 51 124 151 190 166 691 165 151 -1 292 2 313 6
26 5 37 4 37 -5 0 -7 -82 -134 -182 -284 -198 -296 -221 -333 -331 -523 -95
-163 -161 -295 -186 -369 -10 -33 -33 -129 -50 -215 -26 -129 -31 -176 -29
-265 l3 -109 253 0 c224 -1 252 1 246 15 -57 134 -66 237 -39 458 30 242 51
325 155 602 27 74 146 310 268 535 66 121 217 497 202 503 -5 2 -35 -4 -67
-12 -109 -28 -370 -39 -669 -26 -246 10 -459 28 -528 46 -21 5 -27 2 -36 -21z"/>
<path d="M5140 5661 c25 -22 49 -41 54 -41 16 0 -38 51 -69 66 -25 13 -23 9
15 -25z"/>
<path d="M5320 5496 c0 -18 149 -166 167 -166 19 0 16 12 -10 48 -30 40 -69
79 -109 109 -37 27 -48 29 -48 9z"/>
<path d="M5610 5200 c0 -21 51 -90 67 -90 11 0 11 4 -1 28 -19 36 -66 80 -66
62z"/>
<path d="M5730 5044 c0 -15 50 -84 61 -84 5 0 3 12 -5 28 -15 30 -56 70 -56
56z"/>
<path d="M5805 4930 c10 -34 30 -70 55 -100 19 -22 20 -22 11 -3 -6 12 -11 30
-11 41 0 10 -14 34 -31 53 -29 31 -31 32 -24 9z"/>
<path d="M5900 4756 c0 -5 38 -86 84 -180 46 -94 107 -229 135 -301 29 -71 56
-139 61 -150 5 -11 15 -40 21 -65 7 -25 17 -49 22 -55 16 -16 -1 84 -18 108
-8 12 -15 31 -15 42 -1 11 -9 38 -20 60 -11 22 -20 47 -20 55 0 8 -18 51 -40
95 -22 44 -40 86 -40 93 0 8 -7 28 -16 45 -9 18 -21 40 -25 49 -62 127 -128
231 -129 204z"/>
<path d="M6238 3945 c2 -27 10 -63 17 -80 l13 -30 1 40 c0 22 -8 58 -18 80
l-18 40 5 -50z"/>
<path d="M6281 3735 c1 -79 17 -113 18 -40 0 33 -4 67 -9 75 -7 11 -9 1 -9
-35z"/>
<path d="M6304 3273 c0 -222 -4 -357 -13 -418 -23 -160 -25 -202 -10 -187 9 8
15 42 17 90 2 51 9 89 22 112 15 28 20 66 25 200 8 220 -5 477 -26 508 -15 21
-16 -3 -15 -305z"/>
</g>
</svg>
