<?xml version="1.0" standalone="no"?>
<!DOCTYPE svg PUBLIC "-//W3C//DTD SVG 20010904//EN"
 "http://www.w3.org/TR/2001/REC-SVG-20010904/DTD/svg10.dtd">
<svg version="1.0" xmlns="http://www.w3.org/2000/svg"
 width="792.000000pt" height="347.000000pt" viewBox="0 0 792.000000 347.000000"
 preserveAspectRatio="xMidYMid meet">

<g transform="translate(0.000000,347.000000) scale(0.100000,-0.100000)"
fill="#000000" stroke="none">
<path d="M3279 3367 c5 -5 21 -7 37 -5 27 3 26 4 -8 9 -22 3 -34 1 -29 -4z"/>
<path d="M3394 3335 c36 -19 45 -19 20 0 -10 8 -26 14 -34 15 -8 0 -2 -7 14
-15z"/>
<path d="M2401 3270 c-2 -94 12 -110 95 -110 64 0 65 0 71 -31 4 -22 8 -27 14
-17 6 9 9 6 10 -12 1 -15 7 -1 16 34 16 58 15 60 -5 76 -18 15 -129 37 -170
33 -12 -1 -17 12 -25 67 -3 14 -5 -4 -6 -40z"/>
<path d="M2927 3219 c-16 -9 -17 -26 -11 -197 3 -103 7 -189 10 -191 2 -2 4
64 4 147 0 128 2 152 15 152 13 0 15 -25 15 -164 0 -91 3 -167 8 -169 4 -3 6
74 4 170 -3 137 0 178 10 184 15 10 78 1 93 -12 5 -5 21 -9 35 -9 36 0 59 -55
62 -146 l2 -69 6 75 c6 74 6 74 8 18 2 -53 14 -79 30 -63 14 13 5 150 -11 181
-22 42 -69 81 -115 94 -47 13 -142 12 -165 -1z"/>
<path d="M3551 3154 c0 -11 3 -14 6 -6 3 7 2 16 -1 19 -3 4 -6 -2 -5 -13z"/>
<path d="M3580 3005 c-2 -52 -5 -73 -7 -50 -6 58 -19 63 -32 13 -27 -104 -98
-185 -209 -239 -66 -33 -39 -44 54 -23 67 15 84 23 126 62 26 25 48 53 48 62
0 10 7 34 15 54 11 27 15 62 12 124 l-3 87 -4 -90z"/>
<path d="M5043 2943 c20 -2 54 -2 75 0 20 2 3 4 -38 4 -41 0 -58 -2 -37 -4z"/>
<path d="M5200 2930 c0 -5 5 -10 11 -10 5 0 7 5 4 10 -3 6 -8 10 -11 10 -2 0
-4 -4 -4 -10z"/>
<path d="M4480 2825 c13 -14 26 -25 28 -25 3 0 -5 11 -18 25 -13 14 -26 25
-28 25 -3 0 5 -11 18 -25z"/>
<path d="M5360 2820 c6 -11 13 -20 16 -20 2 0 0 9 -6 20 -6 11 -13 20 -16 20
-2 0 0 -9 6 -20z"/>
<path d="M2923 2785 c0 -22 2 -30 4 -17 2 12 2 30 0 40 -3 9 -5 -1 -4 -23z"/>
<path d="M2596 2788 c-3 -13 -6 -77 -7 -143 -2 -91 -4 -108 -9 -70 -4 28 -8
-69 -8 -216 -2 -191 -5 -268 -14 -277 -7 -7 -36 -12 -64 -12 -29 0 -55 -3 -57
-7 -3 -5 34 -8 82 -8 l86 0 7 50 c6 48 0 696 -6 703 -2 1 -6 -8 -10 -20z"/>
<path d="M4049 2763 c-46 -41 -74 -91 -85 -147 -5 -28 -4 -37 5 -32 6 4 11 12
11 17 0 13 47 64 59 64 5 0 22 16 38 35 54 68 150 44 141 -35 -2 -19 0 -35 4
-35 4 0 8 18 8 39 0 34 3 38 19 34 30 -8 15 31 -26 67 -28 25 -42 30 -83 30
-43 0 -55 -5 -91 -37z"/>
<path d="M4947 2789 c-29 -17 -57 -84 -57 -137 0 -40 -5 -54 -26 -75 -55 -56
-132 -59 -210 -10 -35 22 -44 34 -44 56 0 17 -5 27 -15 27 -15 0 -16 -4 -19
-59 -1 -19 -14 -41 -44 -70 l-42 -41 -270 0 c-295 0 -280 3 -264 -57 5 -19 11
-21 43 -16 20 4 147 8 284 10 160 2 247 7 247 14 0 6 4 8 9 4 5 -3 15 12 21
32 6 21 14 45 17 53 7 16 10 26 12 38 1 4 5 3 9 -3 4 -5 14 -14 23 -20 9 -5
32 -22 50 -37 29 -22 45 -27 113 -29 74 -3 79 -2 87 19 5 12 18 32 29 44 12
13 20 37 21 57 1 33 2 34 9 11 7 -19 8 -13 8 28 -1 45 3 56 27 82 36 37 44 37
80 0 16 -16 31 -28 33 -25 3 3 11 0 19 -6 10 -9 13 -4 13 29 0 33 -6 45 -31
66 -33 28 -97 35 -132 15z"/>
<path d="M5380 2765 c0 -8 4 -15 10 -15 5 0 7 7 4 15 -4 8 -8 15 -10 15 -2 0
-4 -7 -4 -15z"/>
<path d="M5371 2463 c-1 -148 3 -281 8 -298 6 -20 10 69 10 268 1 173 -3 297
-8 297 -5 0 -10 -114 -10 -267z"/>
<path d="M5402 2443 c-1 -160 1 -294 6 -296 4 -3 6 81 4 186 -4 365 -8 401
-10 110z"/>
<path d="M2914 2607 c-3 -9 -4 -28 -2 -44 2 -23 7 -27 26 -25 l22 3 0 -220 c0
-121 3 -222 8 -224 4 -3 7 95 7 216 l0 222 81 3 81 3 44 -48 c24 -26 49 -48
54 -48 6 0 10 -4 11 -10 0 -5 4 -18 8 -27 5 -10 6 -58 5 -107 -2 -49 -1 -87 4
-84 4 2 8 46 9 96 1 56 3 73 5 42 6 -78 23 -80 23 -2 0 75 -30 156 -71 194
-55 50 -109 68 -211 71 -80 3 -99 1 -104 -11z"/>
<path d="M4980 2520 c-9 -6 -10 -10 -3 -10 6 0 15 5 18 10 8 12 4 12 -15 0z"/>
<path d="M2924 2270 c0 -102 2 -143 3 -92 2 50 2 134 0 185 -1 50 -3 9 -3 -93z"/>
<path d="M5060 2399 c-75 -43 -137 -95 -155 -129 -19 -38 -19 -104 0 -120 13
-10 15 -9 15 11 0 13 5 31 10 39 7 11 8 7 4 -15 -4 -24 0 -35 22 -55 16 -14
24 -18 18 -10 -6 8 -14 36 -17 62 -6 40 -3 51 16 71 36 38 84 67 109 67 20 0
27 8 36 39 14 44 15 71 5 71 -5 0 -33 -14 -63 -31z"/>
<path d="M3676 2361 c-5 -19 -16 -35 -26 -38 -13 -4 -20 -19 -25 -55 -22 -158
-143 -279 -331 -329 -75 -21 -98 -22 -454 -20 -225 2 -379 6 -386 12 -7 6 -20
27 -31 47 l-18 37 -3 -64 c-3 -54 0 -68 18 -85 20 -21 29 -21 398 -21 368 0
510 9 536 35 6 6 19 10 31 10 35 0 97 37 153 93 60 59 112 139 94 145 -19 6
-14 23 14 48 26 25 35 29 32 17 -3 -14 34 -93 43 -93 5 0 9 -6 9 -12 1 -26 96
-153 125 -167 17 -8 32 -18 33 -23 2 -4 12 -8 22 -8 10 0 21 -4 24 -9 4 -5 25
-12 49 -16 23 -4 48 -12 56 -18 7 -7 60 -13 117 -15 84 -4 109 -1 129 12 13 9
35 16 49 16 14 0 27 4 31 9 3 6 26 20 51 32 44 23 134 108 134 129 0 17 30 11
36 -7 18 -56 101 -153 130 -153 8 0 29 -7 46 -16 22 -11 58 -16 117 -16 89 0
98 3 208 68 32 19 32 19 60 -4 78 -62 109 -71 220 -62 57 5 65 9 116 55 69 64
91 105 82 153 -4 21 -10 31 -12 24 -6 -16 -105 -110 -146 -138 -43 -29 -88
-37 -135 -25 -51 14 -91 46 -108 88 -8 18 -20 33 -27 33 -7 0 -35 -17 -63 -38
-76 -57 -122 -76 -195 -80 -119 -7 -196 43 -259 168 -17 33 -37 60 -45 60 -8
0 -29 -17 -47 -37 -100 -115 -182 -170 -286 -192 -262 -55 -501 121 -545 404
-12 73 -14 77 -21 46z"/>
<path d="M4010 2321 c0 -6 4 -13 10 -16 6 -3 7 1 4 9 -7 18 -14 21 -14 7z"/>
<path d="M5102 2220 c0 -19 2 -27 5 -17 2 9 2 25 0 35 -3 9 -5 1 -5 -18z"/>
<path d="M5438 2133 c6 -2 18 -2 25 0 6 3 1 5 -13 5 -14 0 -19 -2 -12 -5z"/>
<path d="M5535 2110 c3 -5 8 -10 11 -10 2 0 4 5 4 10 0 6 -5 10 -11 10 -5 0
-7 -4 -4 -10z"/>
<path d="M693 1533 c42 -2 112 -2 155 0 42 1 7 3 -78 3 -85 0 -120 -2 -77 -3z"/>
<path d="M565 1521 c-3 -6 -19 -11 -35 -11 -16 0 -31 -3 -34 -8 -2 -4 13 -6
35 -4 36 4 58 17 46 28 -3 3 -8 1 -12 -5z"/>
<path d="M5418 1523 c12 -2 30 -2 40 0 9 3 -1 5 -23 4 -22 0 -30 -2 -17 -4z"/>
<path d="M960 1508 c0 -4 14 -8 30 -8 17 0 30 2 30 4 0 2 -13 6 -30 8 -16 3
-30 1 -30 -4z"/>
<path d="M5309 1483 c-13 -16 -12 -17 4 -4 16 13 21 21 13 21 -2 0 -10 -8 -17
-17z"/>
<path d="M1030 1480 c-17 -11 10 -19 34 -10 19 6 19 7 -1 12 -11 3 -26 2 -33
-2z"/>
<path d="M5544 1471 c20 -22 26 -25 26 -13 0 4 -10 13 -22 21 -23 14 -23 14
-4 -8z"/>
<path d="M5080 970 c-4 -460 -5 -487 -10 -250 -3 146 -8 258 -12 250 -9 -20
-21 -611 -12 -633 5 -14 21 -17 99 -17 111 0 152 7 160 27 10 27 -6 113 -21
113 -11 0 -14 34 -14 179 0 164 1 179 17 177 21 -1 30 38 13 59 -6 7 -27 16
-48 19 -20 4 -45 9 -54 12 -13 4 -18 0 -19 -13 0 -16 -1 -16 -9 2 -8 19 -9 19
-9 -2 -1 -13 4 -23 10 -23 5 0 7 -4 4 -10 -5 -9 11 -15 60 -22 19 -3 20 -11
20 -253 l0 -250 -80 0 -80 0 -5 575 -5 575 -5 -515z"/>
<path d="M416 1461 c-4 -5 3 -7 14 -4 23 6 26 13 6 13 -8 0 -17 -4 -20 -9z"/>
<path d="M1088 1453 c7 -3 16 -2 19 1 4 3 -2 6 -13 5 -11 0 -14 -3 -6 -6z"/>
<path d="M1136 1435 c18 -13 18 -14 1 -15 -23 0 -13 -17 24 -39 16 -10 42 -37
59 -60 19 -26 38 -41 48 -39 9 1 24 -2 32 -7 8 -5 -5 14 -28 43 -24 29 -49 49
-54 45 -6 -3 -8 -1 -4 5 6 10 -72 82 -89 82 -5 0 0 -7 11 -15z"/>
<path d="M376 1423 c-6 -14 -5 -15 5 -6 7 7 10 15 7 18 -3 3 -9 -2 -12 -12z"/>
<path d="M4647 1413 c-4 -3 -7 -23 -7 -44 0 -43 32 -71 90 -79 l35 -5 3 -478
c2 -448 3 -478 20 -475 15 3 17 19 18 148 2 155 -1 158 -15 15 -6 -63 -8 40
-9 345 0 239 2 429 5 423 9 -24 23 -13 23 17 0 37 -27 55 -94 64 -27 3 -51 8
-53 10 -2 2 -5 17 -6 35 -1 17 -2 31 -3 31 0 0 -4 -3 -7 -7z"/>
<path d="M5582 1378 c-1 -21 -5 -38 -10 -38 -4 0 -16 -16 -27 -36 -23 -43 -89
-84 -136 -84 -40 0 -91 29 -115 65 -21 33 -31 32 -36 -5 -4 -25 3 -35 48 -75
52 -44 54 -45 122 -45 l70 0 46 55 47 54 -4 73 c-1 40 -4 56 -5 36z"/>
<path d="M657 1376 c-165 -59 -238 -222 -240 -531 0 -134 3 -173 21 -237 40
-145 99 -231 193 -282 44 -24 63 -29 129 -29 85 0 139 14 164 42 15 16 15 19
1 24 -8 4 -15 3 -15 -2 0 -32 -161 -43 -226 -14 -22 9 -45 16 -52 14 -7 -1
-11 2 -10 6 1 4 -14 26 -35 48 -20 22 -37 36 -37 30 -1 -30 -20 26 -20 58 0
22 -4 36 -10 32 -5 -3 -13 12 -16 35 -4 25 -10 37 -14 30 -13 -21 -21 309 -11
390 17 125 23 149 37 161 8 6 14 17 14 23 1 14 58 76 102 110 33 24 42 26 139
26 l105 0 41 -42 c22 -24 53 -67 67 -96 15 -29 30 -51 34 -48 4 2 8 -10 9 -27
1 -18 7 -75 13 -127 12 -108 8 -364 -7 -426 -12 -50 -50 -131 -66 -141 -7 -4
-5 2 3 13 14 17 14 18 -2 6 -18 -14 -14 -42 6 -42 22 0 54 44 85 116 52 123
63 258 37 474 -29 232 -97 348 -236 401 -59 22 -148 24 -203 5z"/>
<path d="M290 1355 c-11 -13 -10 -14 4 -9 9 3 16 10 16 15 0 13 -6 11 -20 -6z"/>
<path d="M5242 1340 c0 -14 2 -19 5 -12 2 6 2 18 0 25 -3 6 -5 1 -5 -13z"/>
<path d="M6560 1261 c-7 -15 -7 -21 0 -21 12 0 25 28 17 36 -3 3 -10 -4 -17
-15z"/>
<path d="M6743 1205 c0 -38 2 -53 4 -32 2 20 2 52 0 70 -2 17 -4 1 -4 -38z"/>
<path d="M1330 1220 c0 -5 5 -10 11 -10 5 0 7 5 4 10 -3 6 -8 10 -11 10 -2 0
-4 -4 -4 -10z"/>
<path d="M6709 1213 c-5 -38 -3 -153 2 -153 10 0 18 134 8 150 -6 10 -9 11
-10 3z"/>
<path d="M1320 1193 c1 -15 30 -47 30 -34 0 8 6 11 15 7 13 -5 14 -2 4 16 -9
16 -13 18 -20 7 -6 -10 -9 -11 -9 -1 0 6 -4 12 -10 12 -5 0 -10 -3 -10 -7z"/>
<path d="M148 1145 c-3 -14 -1 -25 3 -25 5 0 9 11 9 25 0 14 -2 25 -4 25 -2 0
-6 -11 -8 -25z"/>
<path d="M1381 1134 c0 -11 3 -14 6 -6 3 7 2 16 -1 19 -3 4 -6 -2 -5 -13z"/>
<path d="M2488 1113 c29 -2 74 -2 100 0 26 2 2 3 -53 3 -55 0 -76 -1 -47 -3z"/>
<path d="M3368 1113 c29 -2 74 -2 100 0 26 2 2 3 -53 3 -55 0 -76 -1 -47 -3z"/>
<path d="M4018 1113 c6 -2 18 -2 25 0 6 3 1 5 -13 5 -14 0 -19 -2 -12 -5z"/>
<path d="M6093 1113 c9 -2 23 -2 30 0 6 3 -1 5 -18 5 -16 0 -22 -2 -12 -5z"/>
<path d="M7393 1113 c15 -2 39 -2 55 0 15 2 2 4 -28 4 -30 0 -43 -2 -27 -4z"/>
<path d="M6156 1096 c3 -9 13 -16 22 -16 8 0 13 1 11 3 -2 1 -12 9 -22 16 -15
12 -17 12 -11 -3z"/>
<path d="M2080 1090 c8 -5 20 -10 25 -10 6 0 3 5 -5 10 -8 5 -19 10 -25 10 -5
0 -3 -5 5 -10z"/>
<path d="M2658 1088 c5 -5 16 -8 23 -6 8 3 3 7 -10 11 -17 4 -21 3 -13 -5z"/>
<path d="M4438 1093 c7 -3 16 -2 19 1 4 3 -2 6 -13 5 -11 0 -14 -3 -6 -6z"/>
<path d="M5850 1090 c-23 -7 -23 -8 -3 -9 12 -1 25 4 28 9 3 6 5 10 3 9 -2 -1
-14 -5 -28 -9z"/>
<path d="M7488 1088 c5 -5 16 -8 23 -6 8 3 3 7 -10 11 -17 4 -21 3 -13 -5z"/>
<path d="M1673 1083 c9 -2 23 -2 30 0 6 3 -1 5 -18 5 -16 0 -22 -2 -12 -5z"/>
<path d="M1858 1083 c7 -3 16 -2 19 1 4 3 -2 6 -13 5 -11 0 -14 -3 -6 -6z"/>
<path d="M3218 1083 c7 -3 16 -2 19 1 4 3 -2 6 -13 5 -11 0 -14 -3 -6 -6z"/>
<path d="M3908 1083 c7 -3 16 -2 19 1 4 3 -2 6 -13 5 -11 0 -14 -3 -6 -6z"/>
<path d="M6848 1083 c18 -2 45 -2 60 0 15 2 0 4 -33 4 -33 0 -45 -2 -27 -4z"/>
<path d="M7198 1083 c7 -3 16 -2 19 1 4 3 -2 6 -13 5 -11 0 -14 -3 -6 -6z"/>
<path d="M113 1060 c-11 -16 -10 -18 2 -14 8 4 15 12 15 20 0 19 -3 18 -17 -6z"/>
<path d="M1386 1065 c-3 -9 -6 -22 -5 -28 0 -7 5 -1 10 12 5 13 8 26 5 28 -2
2 -6 -3 -10 -12z"/>
<path d="M2288 1053 c7 -3 16 -2 19 1 4 3 -2 6 -13 5 -11 0 -14 -3 -6 -6z"/>
<path d="M3618 1053 c7 -3 16 -2 19 1 4 3 -2 6 -13 5 -11 0 -14 -3 -6 -6z"/>
<path d="M7583 1053 c4 -6 2 -13 -5 -15 -9 -3 -4 -15 14 -36 22 -27 27 -29 31
-14 3 12 5 10 7 -8 1 -14 2 -29 0 -35 -1 -5 4 -5 10 2 15 13 -9 69 -28 66 -6
-2 -9 3 -6 11 3 7 -3 19 -12 27 -10 8 -15 9 -11 2z"/>
<path d="M4082 768 c-1 -159 1 -288 6 -288 4 0 6 84 4 187 -4 355 -8 388 -10
101z"/>
<path d="M5579 963 l-2 -88 -11 60 -12 60 -7 -60 c-4 -33 -10 -179 -14 -325
-5 -238 -4 -266 10 -279 40 -33 42 -19 46 358 1 198 0 361 -3 361 -3 0 -7 -39
-7 -87z m-2 -275 c-2 -24 -4 -5 -4 42 0 47 2 66 4 43 2 -24 2 -62 0 -85z"/>
<path d="M6972 1022 c-1 -18 -6 -31 -11 -27 -6 3 -18 -6 -28 -21 -43 -62 -47
-64 -142 -64 l-89 0 -4 -202 c-1 -112 0 -225 3 -252 7 -60 37 -90 84 -83 82
13 155 31 155 39 0 5 -8 7 -17 4 -10 -2 -52 -8 -94 -11 -60 -6 -77 -4 -80 6
-2 8 -2 109 1 224 l5 210 76 3 77 3 7 -38 c15 -82 70 -153 119 -153 17 0 43
-7 58 -14 25 -13 32 -12 75 10 56 30 79 54 61 65 -9 6 -9 13 0 34 7 14 12 39
12 56 0 57 44 116 78 105 19 -6 28 -21 54 -83 17 -43 25 -42 33 6 10 58 -14
106 -60 121 -48 16 -99 5 -124 -26 -12 -16 -23 -49 -27 -87 -8 -71 -32 -102
-88 -112 -49 -10 -83 1 -117 35 -32 31 -36 63 -18 133 5 23 9 67 6 97 -2 30
-4 40 -5 22z m-235 -404 c-1 -40 -3 -10 -3 67 0 77 1 110 3 73 2 -37 2 -100 0
-140z"/>
<path d="M7105 1040 c-16 -7 -17 -9 -3 -9 9 -1 20 4 23 9 7 11 7 11 -20 0z"/>
<path d="M5245 1030 c-13 -5 -14 -9 -5 -9 8 0 24 4 35 9 13 5 14 9 5 9 -8 0
-24 -4 -35 -9z"/>
<path d="M5750 1025 c-7 -9 -10 -18 -7 -21 3 -3 10 4 17 15 13 25 8 27 -10 6z"/>
<path d="M102 804 c-2 -195 0 -234 13 -244 8 -7 15 -27 15 -45 0 -18 7 -38 15
-45 8 -7 15 -19 15 -27 0 -7 11 -26 25 -41 14 -15 25 -32 25 -38 0 -18 145
-141 195 -165 11 -5 27 -13 35 -18 49 -27 80 -41 97 -41 10 0 24 -5 31 -12 15
-15 385 -14 390 1 2 6 16 11 31 11 15 0 36 7 47 15 10 8 26 15 34 15 40 1 270
193 270 226 0 6 7 17 15 24 8 7 15 21 15 31 0 11 5 19 10 19 6 0 10 10 10 23
0 12 6 32 14 43 8 11 17 46 20 79 16 173 21 198 39 209 15 9 24 5 53 -26 29
-32 34 -44 32 -80 l-1 -43 -6 45 c-3 25 -8 -52 -11 -170 l-5 -215 -30 -5 -30
-6 33 -7 c47 -10 69 5 74 50 6 45 -1 447 -8 481 -3 14 -18 28 -42 38 -20 9
-54 25 -75 36 -21 11 -40 18 -43 16 -2 -2 -8 -48 -14 -102 -38 -338 -168 -521
-434 -610 -103 -35 -295 -30 -416 11 -122 42 -275 176 -330 290 -41 86 -79
268 -82 393 -2 94 -2 95 -7 25 l-5 -70 -6 80 c-4 52 -7 -1 -8 -151z"/>
<path d="M1508 1023 c6 -2 18 -2 25 0 6 3 1 5 -13 5 -14 0 -19 -2 -12 -5z"/>
<path d="M3069 1003 c-13 -16 -12 -17 4 -4 9 7 17 15 17 17 0 8 -8 3 -21 -13z"/>
<path d="M4152 977 c-2 -40 2 -52 24 -72 15 -14 35 -25 44 -25 10 0 30 -7 46
-15 38 -20 54 -4 34 33 -10 16 -26 28 -40 30 -14 1 -42 7 -62 14 -32 9 -37 15
-41 47 -3 31 -4 29 -5 -12z"/>
<path d="M1792 970 c0 -19 2 -27 5 -17 2 9 2 25 0 35 -3 9 -5 1 -5 -18z"/>
<path d="M4063 960 c0 -25 2 -35 4 -22 2 12 2 32 0 45 -2 12 -4 2 -4 -23z"/>
<path d="M5944 962 c-31 -24 -47 -60 -40 -88 7 -26 36 -33 36 -9 0 8 5 15 10
15 6 0 10 6 10 14 0 22 51 27 84 8 19 -12 36 -37 52 -77 23 -57 24 -61 7 -74
-13 -10 -15 -15 -5 -18 7 -3 25 -15 40 -27 47 -38 82 -57 82 -45 0 8 6 7 18
-2 15 -13 16 -12 3 3 -7 10 -17 16 -21 13 -12 -7 -42 44 -36 61 3 9 20 14 44
14 46 0 74 25 79 72 5 43 17 54 45 40 13 -6 34 -12 48 -14 l25 -3 3 -279 c2
-209 6 -284 15 -295 7 -9 19 -29 27 -44 19 -38 66 -77 102 -84 15 -3 31 -10
34 -14 9 -15 169 -10 200 6 16 8 36 15 45 15 8 0 35 16 58 36 l42 37 37 -36
c58 -55 90 -67 184 -67 57 1 89 5 102 15 11 8 30 15 42 15 13 0 26 4 29 10 3
5 13 10 22 10 9 0 24 7 34 16 17 15 21 14 65 -25 35 -31 55 -41 80 -41 35 0
44 13 21 27 -11 6 -10 11 2 23 14 13 18 13 33 -2 14 -14 14 -17 2 -22 -26 -10
-14 -26 20 -26 34 0 35 0 24 30 -12 36 -43 60 -76 60 -37 0 -99 40 -113 72
-12 31 -48 38 -68 15 -6 -8 -48 -31 -93 -53 -106 -49 -170 -52 -240 -11 -26
15 -55 41 -65 57 -24 42 -16 44 -158 -44 -67 -41 -173 -48 -240 -16 -87 42
-110 97 -121 280 -8 140 -17 156 -24 40 -5 -78 -7 -62 -8 86 -2 148 1 183 12
187 19 8 32 67 16 77 -20 13 -171 20 -191 9 -14 -7 -19 -21 -19 -49 0 -33 -4
-41 -24 -46 -53 -13 -69 -2 -103 68 -36 75 -67 98 -130 98 -21 0 -48 -8 -59
-18z"/>
<path d="M2434 960 c-32 -13 -54 -55 -62 -117 -8 -63 -31 -88 -97 -103 -65
-15 -118 17 -135 82 l-11 38 -47 -25 c-61 -32 -85 -32 -156 6 l-60 32 -38 -42
-38 -41 2 -232 3 -233 28 0 29 0 -2 212 c-1 204 0 212 20 226 23 16 46 14 97
-9 17 -8 52 -13 76 -13 37 2 52 -4 85 -29 30 -24 50 -32 81 -32 29 0 41 -4 41
-14 0 -21 69 -14 112 11 32 18 33 22 41 99 7 69 12 83 37 109 l30 29 29 -28
c16 -15 32 -28 35 -27 18 3 25 -1 29 -16 3 -10 5 -3 6 15 3 79 -65 131 -135
102z"/>
<path d="M2820 951 c0 -11 4 -22 9 -25 4 -3 6 6 3 19 -5 30 -12 33 -12 6z"/>
<path d="M3295 956 c-35 -15 -82 -67 -97 -105 -18 -46 -29 -155 -22 -206 l8
-50 7 40 c4 22 8 62 8 89 1 27 4 46 7 43 8 -8 44 37 44 55 0 7 14 30 31 51 37
44 71 49 95 12 9 -14 21 -22 27 -18 6 4 8 -4 5 -21 -4 -18 -1 -29 8 -33 8 -3
14 -11 14 -18 0 -22 49 -54 93 -60 84 -12 153 34 157 105 1 23 2 23 10 5 8
-19 9 -19 9 2 1 12 6 25 12 28 18 12 55 -4 67 -27 10 -21 11 -22 11 -3 1 17 3
17 11 5 13 -20 13 -377 0 -385 -18 -11 -12 -137 10 -179 29 -58 97 -126 147
-147 49 -21 197 -27 208 -9 3 6 17 10 29 10 13 0 29 7 36 15 18 21 30 19 61
-11 25 -24 31 -25 56 -16 15 6 54 14 86 18 31 3 60 10 63 15 8 14 148 11 162
-3 10 -10 115 -14 440 -16 393 -3 483 0 600 24 24 5 46 0 87 -20 51 -24 67
-26 180 -26 69 0 133 4 143 10 9 5 35 17 57 27 50 21 135 93 135 113 0 8 7 24
15 34 8 11 15 27 15 37 0 9 7 22 15 29 26 22 1 182 -30 188 -5 1 -11 7 -11 12
-1 6 -2 16 -3 23 -1 8 -4 7 -10 -3 -5 -8 -6 -35 -1 -60 15 -80 -14 -165 -79
-233 -73 -78 -180 -108 -309 -87 -108 17 -181 46 -186 73 -19 92 -30 137 -43
167 -11 27 -16 32 -23 20 -5 -8 -11 -10 -12 -5 -1 6 -4 -21 -7 -60 -6 -66 -5
-71 21 -98 29 -29 27 -54 -5 -74 -6 -4 -222 -8 -480 -10 l-467 -2 -17 25 c-15
24 -21 26 -67 20 -28 -4 -102 -18 -165 -32 -131 -29 -135 -28 -126 49 7 61 -9
62 -78 3 -65 -54 -104 -75 -162 -83 -87 -11 -182 51 -237 157 -22 43 -23 56
-26 292 -4 276 -1 267 -78 278 -50 8 -57 3 -89 -64 -23 -47 -54 -66 -110 -66
-60 0 -100 29 -119 88 -10 28 -23 55 -30 61 -22 18 -69 22 -101 7z"/>
<path d="M4560 690 l-5 -285 -5 275 c-5 232 -6 251 -9 120 -2 -85 -5 -214 -7
-287 -4 -131 3 -160 29 -134 6 6 27 11 47 12 l35 0 -35 12 -35 12 -5 280 -5
280 -5 -285z"/>
<path d="M7661 933 c0 -7 -7 -13 -14 -13 -27 0 -30 -510 -4 -536 11 -11 27 15
27 44 0 13 4 20 10 17 12 -7 4 401 -9 460 -5 22 -9 34 -10 28z"/>
<path d="M5682 799 c-2 -84 1 -109 13 -119 8 -7 15 -18 15 -25 0 -7 14 -29 30
-50 17 -21 29 -44 26 -51 -16 -42 87 -218 141 -240 39 -17 79 -18 88 -3 4 5
19 7 34 4 42 -9 72 21 78 76 8 67 -24 99 -163 164 -123 58 -176 103 -215 183
-21 43 -24 45 -28 22 -3 -14 -8 13 -12 60 l-5 85 -2 -106z m235 -319 c46 -23
97 -55 113 -72 34 -35 33 -33 20 -59 -9 -15 -22 -19 -70 -19 -37 0 -60 4 -60
11 0 6 -7 9 -15 6 -8 -4 -17 -1 -21 5 -4 7 -3 8 4 4 7 -4 12 -4 12 -1 0 10
-27 35 -38 35 -5 0 -13 20 -16 45 -4 24 -11 47 -17 50 -10 7 -12 35 -2 35 3 0
44 -18 90 -40z"/>
<path d="M2843 825 c0 -33 2 -45 4 -27 2 18 2 45 0 60 -2 15 -4 0 -4 -33z"/>
<path d="M4062 645 c-2 -195 3 -226 39 -248 13 -8 21 -6 35 8 17 17 17 18 2
12 -13 -5 -18 -1 -18 13 0 11 -6 20 -13 20 -29 0 -37 46 -40 215 l-3 170 -2
-190z"/>
<path d="M7359 798 c-3 -22 -1 -34 4 -29 5 5 7 21 5 37 -3 27 -4 26 -9 -8z"/>
<path d="M2411 764 c0 -11 3 -14 6 -6 3 7 2 16 -1 19 -3 4 -6 -2 -5 -13z"/>
<path d="M2812 670 c-7 -47 -12 -126 -12 -176 0 -76 3 -96 19 -115 22 -28 34
-21 34 18 1 117 -7 293 -14 293 -5 0 -9 5 -9 11 0 5 5 7 10 4 6 -3 10 -1 10 4
0 6 -4 11 -9 11 -5 0 -11 8 -13 18 -2 9 -9 -21 -16 -68z"/>
<path d="M2410 730 c0 -5 5 -10 11 -10 5 0 7 5 4 10 -3 6 -8 10 -11 10 -2 0
-4 -4 -4 -10z"/>
<path d="M3213 680 c0 -30 2 -43 4 -27 2 15 2 39 0 55 -2 15 -4 2 -4 -28z"/>
<path d="M2910 557 c-4 -149 -3 -168 11 -172 24 -8 31 -46 14 -71 -35 -53
-129 -114 -177 -114 -39 0 -110 42 -130 76 -11 19 -25 34 -30 34 -6 0 -37 -18
-71 -40 -74 -50 -154 -75 -211 -66 -89 15 -162 84 -188 180 -6 25 -15 43 -20
40 -4 -3 -12 10 -17 28 -8 27 -9 18 -10 -53 -1 -66 3 -90 14 -99 8 -7 15 -21
15 -32 0 -36 52 -89 115 -119 49 -23 76 -29 126 -29 69 1 156 25 189 53 26 22
39 21 70 -3 14 -11 30 -20 36 -20 6 0 17 -7 24 -15 9 -11 33 -15 90 -15 87 0
123 17 191 91 19 21 44 39 55 39 11 0 38 -18 59 -40 21 -22 47 -40 57 -40 10
0 18 -4 18 -8 0 -5 17 -16 38 -25 43 -19 229 -24 260 -8 9 6 34 13 55 16 20 3
37 10 37 15 0 6 10 10 23 10 24 0 117 83 117 105 0 6 11 22 25 35 21 20 25 32
24 79 -1 31 -4 46 -6 33 -2 -12 -9 -20 -14 -16 -5 3 -44 -30 -87 -74 -98 -100
-154 -125 -287 -126 -80 -1 -96 2 -150 28 -106 52 -188 152 -230 281 l-13 40
-3 -50 c-2 -27 -6 11 -9 85 l-5 135 -5 -168z"/>
<path d="M7343 625 c-69 -31 -140 -98 -154 -145 -9 -31 -8 -43 6 -73 9 -19 24
-38 32 -42 20 -7 40 10 24 19 -25 16 -10 58 40 111 63 67 83 65 76 -9 -2 -27
-10 -52 -16 -54 -7 -2 -3 -11 10 -23 13 -11 26 -16 30 -12 6 7 29 199 29 241
0 17 -17 14 -77 -13z"/>
<path d="M2540 633 c-8 -3 -43 -23 -77 -46 -97 -64 -121 -126 -77 -194 19 -30
32 -29 30 2 0 14 -4 25 -8 25 -20 0 -4 30 36 69 51 50 75 50 77 -1 2 -53 -2
-72 -19 -93 -10 -12 -6 -10 11 5 25 21 28 30 23 61 -4 23 -1 42 9 55 8 10 15
15 15 9 0 -5 5 -3 10 5 5 8 10 36 10 63 0 47 -5 52 -40 40z"/>
<path d="M6265 619 c-4 -6 -5 -12 -2 -15 2 -3 7 2 10 11 7 17 1 20 -8 4z"/>
<path d="M2170 581 c0 -6 4 -13 10 -16 6 -3 7 1 4 9 -7 18 -14 21 -14 7z"/>
<path d="M5639 513 c-13 -16 -12 -17 4 -4 9 7 17 15 17 17 0 8 -8 3 -21 -13z"/>
<path d="M2100 509 c0 -5 5 -7 10 -4 6 3 10 8 10 11 0 2 -4 4 -10 4 -5 0 -10
-5 -10 -11z"/>
<path d="M3598 503 c6 -2 18 -2 25 0 6 3 1 5 -13 5 -14 0 -19 -2 -12 -5z"/>
<path d="M2112 465 c0 -16 2 -22 5 -12 2 9 2 23 0 30 -3 6 -5 -1 -5 -18z"/>
<path d="M6922 450 c0 -14 2 -19 5 -12 2 6 2 18 0 25 -3 6 -5 1 -5 -13z"/>
<path d="M2553 435 c-7 -16 -8 -27 -1 -31 14 -9 20 1 16 30 l-3 26 -12 -25z"/>
<path d="M7681 406 c-1 -22 2 -26 12 -18 6 5 23 12 37 15 22 4 21 4 -7 6 -17
0 -34 7 -36 14 -3 6 -6 -1 -6 -17z"/>
<path d="M4685 340 c-3 -5 3 -10 15 -10 12 0 18 5 15 10 -3 6 -10 10 -15 10
-5 0 -12 -4 -15 -10z"/>
<path d="M7800 328 c0 -16 -3 -19 -8 -10 -6 9 -14 6 -31 -12 -25 -26 -22 -30
27 -41 l32 -7 0 46 c0 25 -4 46 -10 46 -5 0 -10 -10 -10 -22z"/>
<path d="M1959 319 c-1 -8 0 -26 1 -41 3 -51 -20 -55 -273 -49 l-227 6 -18 35
c-9 19 -21 35 -27 35 -5 0 -11 -27 -13 -61 -2 -51 0 -63 19 -80 20 -18 38 -19
274 -19 308 0 305 -1 305 90 0 49 -4 66 -20 80 -16 14 -20 15 -21 4z"/>
<path d="M7775 243 c-34 -8 -82 -51 -89 -79 -4 -14 -5 -28 -3 -30 6 -6 97 63
118 90 21 26 17 29 -26 19z"/>
</g>
</svg>
